<svg width="215" height="188" viewBox="0 0 215 188" fill="none" xmlns="http://www.w3.org/2000/svg">
<path d="M4.05682 80.5455H0.588068L6.73295 98H10.6364L16.7898 80.5455H13.3125L8.77841 94.2841H8.59943L4.05682 80.5455ZM18.9524 98H22.0376V84.9091H18.9524V98ZM20.5036 83.0511C21.4837 83.0511 22.2848 82.3011 22.2848 81.3807C22.2848 80.4517 21.4837 79.7017 20.5036 79.7017C19.5149 79.7017 18.7138 80.4517 18.7138 81.3807C18.7138 82.3011 19.5149 83.0511 20.5036 83.0511ZM35.5568 88.3693C35.1307 86.1534 33.358 84.7386 30.2898 84.7386C27.1364 84.7386 24.9886 86.2898 24.9972 88.7102C24.9886 90.6193 26.1648 91.8807 28.679 92.4006L30.9119 92.8693C32.1136 93.1335 32.6761 93.6193 32.6761 94.3608C32.6761 95.2557 31.7045 95.929 30.2386 95.929C28.8239 95.929 27.9034 95.3153 27.6392 94.1392L24.6307 94.429C25.0142 96.8324 27.0341 98.2557 30.2472 98.2557C33.5199 98.2557 35.8295 96.5597 35.8381 94.0795C35.8295 92.2131 34.6278 91.071 32.1562 90.5341L29.9233 90.0568C28.5938 89.7585 28.0653 89.2983 28.0739 88.5398C28.0653 87.6534 29.0455 87.0398 30.3324 87.0398C31.7557 87.0398 32.5057 87.8153 32.7443 88.6761L35.5568 88.3693ZM46.7259 92.4943C46.7259 94.4886 45.3026 95.4773 43.9389 95.4773C42.456 95.4773 41.4673 94.429 41.4673 92.767V84.9091H38.3821V93.2443C38.3821 96.3892 40.1719 98.1705 42.7457 98.1705C44.706 98.1705 46.0866 97.1392 46.6832 95.6733H46.8196V98H49.8111V84.9091H46.7259V92.4943ZM56.7507 98.2642C58.8047 98.2642 60.032 97.3011 60.5945 96.2017H60.6967V98H63.6626V89.2386C63.6626 85.7784 60.8416 84.7386 58.3445 84.7386C55.5916 84.7386 53.478 85.9659 52.7962 88.3523L55.6768 88.7614C55.9837 87.8665 56.853 87.0994 58.3615 87.0994C59.7933 87.0994 60.5774 87.8324 60.5774 89.1193V89.1705C60.5774 90.0568 59.6484 90.0994 57.3388 90.3466C54.799 90.6193 52.37 91.3778 52.37 94.3267C52.37 96.9006 54.2536 98.2642 56.7507 98.2642ZM57.5518 95.9972C56.2649 95.9972 55.3445 95.4091 55.3445 94.2756C55.3445 93.0909 56.3757 92.5966 57.7564 92.4006C58.5661 92.2898 60.1854 92.0852 60.5859 91.7614V93.304C60.5859 94.7614 59.4098 95.9972 57.5518 95.9972ZM69.8501 80.5455H66.7649V98H69.8501V80.5455ZM79.1122 98H86.1776C90.1747 98 92.1349 95.9631 92.1349 93.2443C92.1349 90.6023 90.2599 89.0511 88.402 88.9574V88.7869C90.1065 88.3864 91.4531 87.1932 91.4531 85.071C91.4531 82.4716 89.5781 80.5455 85.794 80.5455H79.1122V98ZM82.2741 95.358V90.2443H85.7599C87.7116 90.2443 88.9219 91.4375 88.9219 92.9972C88.9219 94.3864 87.9673 95.358 85.6747 95.358H82.2741ZM82.2741 87.9688V83.1534H85.4702C87.3281 83.1534 88.2912 84.1335 88.2912 85.4801C88.2912 87.0142 87.0469 87.9688 85.402 87.9688H82.2741ZM94.7493 98H97.8345V90.304C97.8345 88.642 99.0874 87.4659 100.783 87.4659C101.303 87.4659 101.951 87.5597 102.215 87.6449V84.8068C101.934 84.7557 101.448 84.7216 101.107 84.7216C99.6072 84.7216 98.3544 85.5739 97.8771 87.0909H97.7408V84.9091H94.7493V98ZM107.774 98.2642C109.828 98.2642 111.055 97.3011 111.618 96.2017H111.72V98H114.686V89.2386C114.686 85.7784 111.865 84.7386 109.368 84.7386C106.615 84.7386 104.501 85.9659 103.82 88.3523L106.7 88.7614C107.007 87.8665 107.876 87.0994 109.385 87.0994C110.817 87.0994 111.601 87.8324 111.601 89.1193V89.1705C111.601 90.0568 110.672 90.0994 108.362 90.3466C105.822 90.6193 103.393 91.3778 103.393 94.3267C103.393 96.9006 105.277 98.2642 107.774 98.2642ZM108.575 95.9972C107.288 95.9972 106.368 95.4091 106.368 94.2756C106.368 93.0909 107.399 92.5966 108.78 92.4006C109.589 92.2898 111.209 92.0852 111.609 91.7614V93.304C111.609 94.7614 110.433 95.9972 108.575 95.9972ZM120.874 90.3295C120.874 88.4375 122.016 87.3466 123.643 87.3466C125.237 87.3466 126.192 88.3949 126.192 90.142V98H129.277V89.6648C129.286 86.5284 127.496 84.7386 124.794 84.7386C122.834 84.7386 121.487 85.6761 120.891 87.1335H120.737V84.9091H117.788V98H120.874V90.3295ZM137.271 98.2301C139.521 98.2301 140.536 96.892 141.021 95.9375H141.209V98H144.243V80.5455H141.149V87.0739H141.021C140.553 86.1278 139.589 84.7386 137.28 84.7386C134.254 84.7386 131.876 87.108 131.876 91.4716C131.876 95.7841 134.186 98.2301 137.271 98.2301ZM138.132 95.6989C136.095 95.6989 135.021 93.9091 135.021 91.4545C135.021 89.017 136.078 87.2699 138.132 87.2699C140.118 87.2699 141.209 88.9148 141.209 91.4545C141.209 93.9943 140.101 95.6989 138.132 95.6989ZM147.531 98H150.616V84.9091H147.531V98ZM149.082 83.0511C150.062 83.0511 150.863 82.3011 150.863 81.3807C150.863 80.4517 150.062 79.7017 149.082 79.7017C148.093 79.7017 147.292 80.4517 147.292 81.3807C147.292 82.3011 148.093 83.0511 149.082 83.0511ZM156.874 90.3295C156.874 88.4375 158.016 87.3466 159.643 87.3466C161.237 87.3466 162.192 88.3949 162.192 90.142V98H165.277V89.6648C165.286 86.5284 163.496 84.7386 160.794 84.7386C158.834 84.7386 157.487 85.6761 156.891 87.1335H156.737V84.9091H153.788V98H156.874V90.3295ZM174.107 103.182C177.643 103.182 180.251 101.562 180.251 98.2131V84.9091H177.209V87.0739H177.038C176.57 86.1278 175.589 84.7386 173.28 84.7386C170.254 84.7386 167.876 87.108 167.876 91.4119C167.876 95.6818 170.254 97.8125 173.271 97.8125C175.513 97.8125 176.561 96.6108 177.038 95.6477H177.192V98.1278C177.192 100.054 175.913 100.847 174.158 100.847C172.3 100.847 171.482 99.9688 171.107 99.2017L168.328 99.875C168.891 101.707 170.774 103.182 174.107 103.182ZM174.132 95.392C172.095 95.392 171.021 93.8068 171.021 91.3949C171.021 89.017 172.078 87.2699 174.132 87.2699C176.118 87.2699 177.209 88.9148 177.209 91.3949C177.209 93.892 176.101 95.392 174.132 95.392Z" fill="#0F1221"/>
<circle cx="25" cy="25" r="25" fill="#F5FBFC"/>
<path d="M12 23.1787C12 23.1787 16.9091 15 25.5 15C34.0909 15 39 23.1787 39 23.1787C39 23.1787 34.0909 31.3574 25.5 31.3574C16.9091 31.3574 12 23.1787 12 23.1787Z" stroke="#08546C" stroke-width="3" stroke-linecap="round" stroke-linejoin="round"/>
<path d="M25.5002 26.2455C27.5336 26.2455 29.182 24.8723 29.182 23.1785C29.182 21.4846 27.5336 20.1115 25.5002 20.1115C23.4668 20.1115 21.8184 21.4846 21.8184 23.1785C21.8184 24.8723 23.4668 26.2455 25.5002 26.2455Z" stroke="#08546C" stroke-width="3" stroke-linecap="round" stroke-linejoin="round"/>
<path d="M2.81818 121.364H1.40909V133H2.81818V121.364ZM6.64347 121.364H5.37074V122.409C5.37074 123.25 4.96165 123.977 4.48438 124.659L5.21165 125.25C6.12074 124.523 6.64347 123.318 6.64347 122.386V121.364ZM15.7855 124.273H14.331L11.9219 131.227H11.831L9.42188 124.273H7.96733L11.1946 133H12.5582L15.7855 124.273ZM20.902 133.182C22.6747 133.182 23.9702 132.295 24.3793 130.977L23.0838 130.614C22.7429 131.523 21.9531 131.977 20.902 131.977C19.3281 131.977 18.2429 130.96 18.1804 129.091H24.5156V128.523C24.5156 125.273 22.5838 124.159 20.7656 124.159C18.402 124.159 16.8338 126.023 16.8338 128.705C16.8338 131.386 18.3793 133.182 20.902 133.182ZM18.1804 127.932C18.2713 126.574 19.2315 125.364 20.7656 125.364C22.2202 125.364 23.152 126.455 23.152 127.932H18.1804ZM34.6009 133.182C36.5327 133.182 37.8054 132 38.0327 130.455H36.6918C36.4418 131.409 35.6463 131.977 34.6009 131.977C33.0099 131.977 31.9872 130.659 31.9872 128.636C31.9872 126.659 33.0327 125.364 34.6009 125.364C35.7827 125.364 36.4872 126.091 36.6918 126.886H38.0327C37.8054 125.25 36.419 124.159 34.5781 124.159C32.2145 124.159 30.6463 126.023 30.6463 128.682C30.6463 131.295 32.1463 133.182 34.6009 133.182ZM39.9929 133H41.3338V127.477C41.3338 126.295 42.2656 125.432 43.5384 125.432C43.8963 125.432 44.2656 125.5 44.3565 125.523V124.159C44.2031 124.148 43.8509 124.136 43.652 124.136C42.6065 124.136 41.6974 124.727 41.3793 125.591H41.2884V124.273H39.9929V133ZM49.3395 133.182C51.1122 133.182 52.4077 132.295 52.8168 130.977L51.5213 130.614C51.1804 131.523 50.3906 131.977 49.3395 131.977C47.7656 131.977 46.6804 130.96 46.6179 129.091H52.9531V128.523C52.9531 125.273 51.0213 124.159 49.2031 124.159C46.8395 124.159 45.2713 126.023 45.2713 128.705C45.2713 131.386 46.8168 133.182 49.3395 133.182ZM46.6179 127.932C46.7088 126.574 47.669 125.364 49.2031 125.364C50.6577 125.364 51.5895 126.455 51.5895 127.932H46.6179ZM57.5611 133.205C59.0838 133.205 59.8793 132.386 60.152 131.818H60.2202V133H61.5611V127.25C61.5611 124.477 59.4474 124.159 58.3338 124.159C57.0156 124.159 55.5156 124.614 54.8338 126.205L56.1065 126.659C56.402 126.023 57.1009 125.341 58.3793 125.341C59.6122 125.341 60.2202 125.994 60.2202 127.114V127.159C60.2202 127.807 59.5611 127.75 57.9702 127.955C56.3509 128.165 54.5838 128.523 54.5838 130.523C54.5838 132.227 55.902 133.205 57.5611 133.205ZM57.7656 132C56.6974 132 55.9247 131.523 55.9247 130.591C55.9247 129.568 56.8565 129.25 57.902 129.114C58.4702 129.045 59.9929 128.886 60.2202 128.614V129.841C60.2202 130.932 59.3565 132 57.7656 132ZM67.804 124.273H65.9403V122.182H64.5994V124.273H63.2812V125.409H64.5994V130.864C64.5994 132.386 65.8267 133.114 66.9631 133.114C67.4631 133.114 67.7812 133.023 67.9631 132.955L67.6903 131.75C67.5767 131.773 67.3949 131.818 67.0994 131.818C66.5085 131.818 65.9403 131.636 65.9403 130.5V125.409H67.804V124.273ZM73.3864 133.182C75.1591 133.182 76.4545 132.295 76.8636 130.977L75.5682 130.614C75.2273 131.523 74.4375 131.977 73.3864 131.977C71.8125 131.977 70.7273 130.96 70.6648 129.091H77V128.523C77 125.273 75.0682 124.159 73.25 124.159C70.8864 124.159 69.3182 126.023 69.3182 128.705C69.3182 131.386 70.8636 133.182 73.3864 133.182ZM70.6648 127.932C70.7557 126.574 71.7159 125.364 73.25 125.364C74.7045 125.364 75.6364 126.455 75.6364 127.932H70.6648ZM82.3352 133.182C84.017 133.182 84.5852 132.136 84.8807 131.659H85.0398V133H86.3352V121.364H84.9943V125.659H84.8807C84.5852 125.205 84.0625 124.159 82.358 124.159C80.1534 124.159 78.6307 125.909 78.6307 128.659C78.6307 131.432 80.1534 133.182 82.3352 133.182ZM82.517 131.977C80.8352 131.977 79.9716 130.5 79.9716 128.636C79.9716 126.795 80.8125 125.364 82.517 125.364C84.1534 125.364 85.017 126.682 85.017 128.636C85.017 130.614 84.1307 131.977 82.517 131.977ZM96.0455 133.205C97.5682 133.205 98.3636 132.386 98.6364 131.818H98.7045V133H100.045V127.25C100.045 124.477 97.9318 124.159 96.8182 124.159C95.5 124.159 94 124.614 93.3182 126.205L94.5909 126.659C94.8864 126.023 95.5852 125.341 96.8636 125.341C98.0966 125.341 98.7045 125.994 98.7045 127.114V127.159C98.7045 127.807 98.0455 127.75 96.4545 127.955C94.8352 128.165 93.0682 128.523 93.0682 130.523C93.0682 132.227 94.3864 133.205 96.0455 133.205ZM96.25 132C95.1818 132 94.4091 131.523 94.4091 130.591C94.4091 129.568 95.3409 129.25 96.3864 129.114C96.9545 129.045 98.4773 128.886 98.7045 128.614V129.841C98.7045 130.932 97.8409 132 96.25 132ZM112.493 129.432C112.493 131.068 111.243 131.818 110.243 131.818C109.129 131.818 108.334 131 108.334 129.727V124.273H106.993V129.818C106.993 132.045 108.175 133.114 109.811 133.114C111.129 133.114 111.993 132.409 112.402 131.523H112.493V133H113.834V124.273H112.493V129.432ZM122.472 126.227C122.051 124.989 121.108 124.159 119.381 124.159C117.54 124.159 116.176 125.205 116.176 126.682C116.176 127.886 116.892 128.693 118.494 129.068L119.949 129.409C120.83 129.614 121.244 130.034 121.244 130.636C121.244 131.386 120.449 132 119.199 132C118.102 132 117.415 131.528 117.176 130.591L115.903 130.909C116.216 132.392 117.438 133.182 119.222 133.182C121.25 133.182 122.631 132.074 122.631 130.568C122.631 129.352 121.869 128.585 120.312 128.205L119.017 127.886C117.983 127.631 117.517 127.284 117.517 126.614C117.517 125.864 118.312 125.318 119.381 125.318C120.551 125.318 121.034 125.966 121.267 126.568L122.472 126.227ZM128.308 133.182C130.081 133.182 131.376 132.295 131.786 130.977L130.49 130.614C130.149 131.523 129.359 131.977 128.308 131.977C126.734 131.977 125.649 130.96 125.587 129.091H131.922V128.523C131.922 125.273 129.99 124.159 128.172 124.159C125.808 124.159 124.24 126.023 124.24 128.705C124.24 131.386 125.786 133.182 128.308 133.182ZM125.587 127.932C125.678 126.574 126.638 125.364 128.172 125.364C129.626 125.364 130.558 126.455 130.558 127.932H125.587ZM133.962 133H135.303V127.477C135.303 126.295 136.234 125.432 137.507 125.432C137.865 125.432 138.234 125.5 138.325 125.523V124.159C138.172 124.148 137.82 124.136 137.621 124.136C136.575 124.136 135.666 124.727 135.348 125.591H135.257V124.273H133.962V133ZM144.415 133H145.756V124.273H144.415V133ZM145.097 122.818C145.619 122.818 146.051 122.409 146.051 121.909C146.051 121.409 145.619 121 145.097 121C144.574 121 144.142 121.409 144.142 121.909C144.142 122.409 144.574 122.818 145.097 122.818ZM149.553 127.75C149.553 126.227 150.496 125.364 151.78 125.364C153.024 125.364 153.78 126.176 153.78 127.545V133H155.121V127.455C155.121 125.227 153.933 124.159 152.166 124.159C150.848 124.159 150.03 124.75 149.621 125.636H149.507V124.273H148.212V133H149.553V127.75ZM161.366 124.273H159.503V122.182H158.162V124.273H156.844V125.409H158.162V130.864C158.162 132.386 159.389 133.114 160.526 133.114C161.026 133.114 161.344 133.023 161.526 132.955L161.253 131.75C161.139 131.773 160.957 131.818 160.662 131.818C160.071 131.818 159.503 131.636 159.503 130.5V125.409H161.366V124.273ZM166.949 133.182C168.722 133.182 170.017 132.295 170.426 130.977L169.131 130.614C168.79 131.523 168 131.977 166.949 131.977C165.375 131.977 164.29 130.96 164.227 129.091H170.562V128.523C170.562 125.273 168.631 124.159 166.812 124.159C164.449 124.159 162.881 126.023 162.881 128.705C162.881 131.386 164.426 133.182 166.949 133.182ZM164.227 127.932C164.318 126.574 165.278 125.364 166.812 125.364C168.267 125.364 169.199 126.455 169.199 127.932H164.227ZM172.602 133H173.943V127.477C173.943 126.295 174.875 125.432 176.148 125.432C176.506 125.432 176.875 125.5 176.966 125.523V124.159C176.812 124.148 176.46 124.136 176.261 124.136C175.216 124.136 174.307 124.727 173.989 125.591H173.898V124.273H172.602V133ZM182.989 124.273H181.034V123.386C181.034 122.523 181.398 122.068 182.284 122.068C182.67 122.068 182.898 122.159 183.034 122.205L183.42 121.045C183.216 120.955 182.807 120.818 182.148 120.818C180.898 120.818 179.693 121.568 179.693 123.068V124.273H178.284V125.409H179.693V133H181.034V125.409H182.989V124.273ZM187.186 133.205C188.709 133.205 189.504 132.386 189.777 131.818H189.845V133H191.186V127.25C191.186 124.477 189.072 124.159 187.959 124.159C186.641 124.159 185.141 124.614 184.459 126.205L185.732 126.659C186.027 126.023 186.726 125.341 188.004 125.341C189.237 125.341 189.845 125.994 189.845 127.114V127.159C189.845 127.807 189.186 127.75 187.595 127.955C185.976 128.165 184.209 128.523 184.209 130.523C184.209 132.227 185.527 133.205 187.186 133.205ZM187.391 132C186.322 132 185.55 131.523 185.55 130.591C185.55 129.568 186.482 129.25 187.527 129.114C188.095 129.045 189.618 128.886 189.845 128.614V129.841C189.845 130.932 188.982 132 187.391 132ZM197.179 133.182C199.111 133.182 200.384 132 200.611 130.455H199.27C199.02 131.409 198.224 131.977 197.179 131.977C195.588 131.977 194.565 130.659 194.565 128.636C194.565 126.659 195.611 125.364 197.179 125.364C198.361 125.364 199.065 126.091 199.27 126.886H200.611C200.384 125.25 198.997 124.159 197.156 124.159C194.793 124.159 193.224 126.023 193.224 128.682C193.224 131.295 194.724 133.182 197.179 133.182ZM206.23 133.182C208.003 133.182 209.298 132.295 209.707 130.977L208.412 130.614C208.071 131.523 207.281 131.977 206.23 131.977C204.656 131.977 203.571 130.96 203.509 129.091H209.844V128.523C209.844 125.273 207.912 124.159 206.094 124.159C203.73 124.159 202.162 126.023 202.162 128.705C202.162 131.386 203.707 133.182 206.23 133.182ZM203.509 127.932C203.599 126.574 204.56 125.364 206.094 125.364C207.548 125.364 208.48 126.455 208.48 127.932H203.509ZM3.79545 158.205C5.31818 158.205 6.11364 157.386 6.38636 156.818H6.45455V158H7.79545V152.25C7.79545 149.477 5.68182 149.159 4.56818 149.159C3.25 149.159 1.75 149.614 1.06818 151.205L2.34091 151.659C2.63636 151.023 3.33523 150.341 4.61364 150.341C5.84659 150.341 6.45455 150.994 6.45455 152.114V152.159C6.45455 152.807 5.79545 152.75 4.20455 152.955C2.58523 153.165 0.818182 153.523 0.818182 155.523C0.818182 157.227 2.13636 158.205 3.79545 158.205ZM4 157C2.93182 157 2.15909 156.523 2.15909 155.591C2.15909 154.568 3.09091 154.25 4.13636 154.114C4.70455 154.045 6.22727 153.886 6.45455 153.614V154.841C6.45455 155.932 5.59091 157 4 157ZM11.5838 152.75C11.5838 151.227 12.527 150.364 13.8111 150.364C15.0554 150.364 15.8111 151.176 15.8111 152.545V158H17.152V152.455C17.152 150.227 15.9645 149.159 14.1974 149.159C12.8793 149.159 12.0611 149.75 11.652 150.636H11.5384V149.273H10.2429V158H11.5838V152.75ZM22.8977 158.182C24.5795 158.182 25.1477 157.136 25.4432 156.659H25.6023V158H26.8977V146.364H25.5568V150.659H25.4432C25.1477 150.205 24.625 149.159 22.9205 149.159C20.7159 149.159 19.1932 150.909 19.1932 153.659C19.1932 156.432 20.7159 158.182 22.8977 158.182ZM23.0795 156.977C21.3977 156.977 20.5341 155.5 20.5341 153.636C20.5341 151.795 21.375 150.364 23.0795 150.364C24.7159 150.364 25.5795 151.682 25.5795 153.636C25.5795 155.614 24.6932 156.977 23.0795 156.977ZM39.5398 154.432C39.5398 156.068 38.2898 156.818 37.2898 156.818C36.1761 156.818 35.3807 156 35.3807 154.727V149.273H34.0398V154.818C34.0398 157.045 35.2216 158.114 36.858 158.114C38.1761 158.114 39.0398 157.409 39.4489 156.523H39.5398V158H40.8807V149.273H39.5398V154.432ZM49.5185 151.227C49.098 149.989 48.1548 149.159 46.4276 149.159C44.5866 149.159 43.223 150.205 43.223 151.682C43.223 152.886 43.9389 153.693 45.5412 154.068L46.9957 154.409C47.8764 154.614 48.2912 155.034 48.2912 155.636C48.2912 156.386 47.4957 157 46.2457 157C45.1491 157 44.4616 156.528 44.223 155.591L42.9503 155.909C43.2628 157.392 44.4844 158.182 46.2685 158.182C48.2969 158.182 49.6776 157.074 49.6776 155.568C49.6776 154.352 48.9162 153.585 47.3594 153.205L46.0639 152.886C45.0298 152.631 44.5639 152.284 44.5639 151.614C44.5639 150.864 45.3594 150.318 46.4276 150.318C47.598 150.318 48.081 150.966 48.3139 151.568L49.5185 151.227ZM55.3551 158.182C57.1278 158.182 58.4233 157.295 58.8324 155.977L57.5369 155.614C57.196 156.523 56.4062 156.977 55.3551 156.977C53.7812 156.977 52.696 155.96 52.6335 154.091H58.9688V153.523C58.9688 150.273 57.0369 149.159 55.2188 149.159C52.8551 149.159 51.2869 151.023 51.2869 153.705C51.2869 156.386 52.8324 158.182 55.3551 158.182ZM52.6335 152.932C52.7244 151.574 53.6847 150.364 55.2188 150.364C56.6733 150.364 57.6051 151.455 57.6051 152.932H52.6335ZM61.0085 158H62.3494V152.477C62.3494 151.295 63.2812 150.432 64.554 150.432C64.9119 150.432 65.2812 150.5 65.3722 150.523V149.159C65.2188 149.148 64.8665 149.136 64.6676 149.136C63.6222 149.136 62.7131 149.727 62.3949 150.591H62.304V149.273H61.0085V158ZM75.1207 158.182C76.8935 158.182 78.1889 157.295 78.598 155.977L77.3026 155.614C76.9616 156.523 76.1719 156.977 75.1207 156.977C73.5469 156.977 72.4616 155.96 72.3991 154.091H78.7344V153.523C78.7344 150.273 76.8026 149.159 74.9844 149.159C72.6207 149.159 71.0526 151.023 71.0526 153.705C71.0526 156.386 72.598 158.182 75.1207 158.182ZM72.3991 152.932C72.4901 151.574 73.4503 150.364 74.9844 150.364C76.4389 150.364 77.3707 151.455 77.3707 152.932H72.3991ZM81.5398 149.273H79.9943L82.767 153.636L79.9943 158H81.5398L83.6307 154.614L85.7216 158H87.267L84.4489 153.636L87.267 149.273H85.7216L83.6307 152.841L81.5398 149.273ZM89.1804 161.273H90.5213V156.659H90.6349C90.9304 157.136 91.4986 158.182 93.1804 158.182C95.3622 158.182 96.8849 156.432 96.8849 153.659C96.8849 150.909 95.3622 149.159 93.1577 149.159C91.4531 149.159 90.9304 150.205 90.6349 150.659H90.4759V149.273H89.1804V161.273ZM90.4986 153.636C90.4986 151.682 91.3622 150.364 92.9986 150.364C94.7031 150.364 95.544 151.795 95.544 153.636C95.544 155.5 94.6804 156.977 92.9986 156.977C91.3849 156.977 90.4986 155.614 90.4986 153.636ZM102.589 158.182C104.362 158.182 105.658 157.295 106.067 155.977L104.771 155.614C104.43 156.523 103.641 156.977 102.589 156.977C101.016 156.977 99.9304 155.96 99.8679 154.091H106.203V153.523C106.203 150.273 104.271 149.159 102.453 149.159C100.089 149.159 98.5213 151.023 98.5213 153.705C98.5213 156.386 100.067 158.182 102.589 158.182ZM99.8679 152.932C99.9588 151.574 100.919 150.364 102.453 150.364C103.908 150.364 104.839 151.455 104.839 152.932H99.8679ZM108.243 158H109.584V152.477C109.584 151.295 110.516 150.432 111.788 150.432C112.146 150.432 112.516 150.5 112.607 150.523V149.159C112.453 149.148 112.101 149.136 111.902 149.136C110.857 149.136 109.947 149.727 109.629 150.591H109.538V149.273H108.243V158ZM114.196 158H115.537V149.273H114.196V158ZM114.878 147.818C115.401 147.818 115.832 147.409 115.832 146.909C115.832 146.409 115.401 146 114.878 146C114.355 146 113.923 146.409 113.923 146.909C113.923 147.409 114.355 147.818 114.878 147.818ZM121.652 158.182C123.425 158.182 124.72 157.295 125.129 155.977L123.834 155.614C123.493 156.523 122.703 156.977 121.652 156.977C120.078 156.977 118.993 155.96 118.93 154.091H125.266V153.523C125.266 150.273 123.334 149.159 121.516 149.159C119.152 149.159 117.584 151.023 117.584 153.705C117.584 156.386 119.129 158.182 121.652 158.182ZM118.93 152.932C119.021 151.574 119.982 150.364 121.516 150.364C122.97 150.364 123.902 151.455 123.902 152.932H118.93ZM128.646 152.75C128.646 151.227 129.589 150.364 130.874 150.364C132.118 150.364 132.874 151.176 132.874 152.545V158H134.214V152.455C134.214 150.227 133.027 149.159 131.26 149.159C129.942 149.159 129.124 149.75 128.714 150.636H128.601V149.273H127.305V158H128.646V152.75ZM140.21 158.182C142.142 158.182 143.415 157 143.642 155.455H142.301C142.051 156.409 141.256 156.977 140.21 156.977C138.619 156.977 137.597 155.659 137.597 153.636C137.597 151.659 138.642 150.364 140.21 150.364C141.392 150.364 142.097 151.091 142.301 151.886H143.642C143.415 150.25 142.028 149.159 140.188 149.159C137.824 149.159 136.256 151.023 136.256 153.682C136.256 156.295 137.756 158.182 140.21 158.182ZM149.261 158.182C151.034 158.182 152.33 157.295 152.739 155.977L151.443 155.614C151.102 156.523 150.312 156.977 149.261 156.977C147.688 156.977 146.602 155.96 146.54 154.091H152.875V153.523C152.875 150.273 150.943 149.159 149.125 149.159C146.761 149.159 145.193 151.023 145.193 153.705C145.193 156.386 146.739 158.182 149.261 158.182ZM146.54 152.932C146.631 151.574 147.591 150.364 149.125 150.364C150.58 150.364 151.511 151.455 151.511 152.932H146.54ZM161.392 158H162.71L164.619 151.295H164.756L166.665 158H167.983L170.642 149.273H169.233L167.347 155.932H167.256L165.415 149.273H163.983L162.119 155.955H162.028L160.142 149.273H158.733L161.392 158ZM172.415 158H173.756V149.273H172.415V158ZM173.097 147.818C173.619 147.818 174.051 147.409 174.051 146.909C174.051 146.409 173.619 146 173.097 146C172.574 146 172.142 146.409 172.142 146.909C172.142 147.409 172.574 147.818 173.097 147.818ZM180.007 149.273H178.143V147.182H176.803V149.273H175.484V150.409H176.803V155.864C176.803 157.386 178.03 158.114 179.166 158.114C179.666 158.114 179.984 158.023 180.166 157.955L179.893 156.75C179.78 156.773 179.598 156.818 179.303 156.818C178.712 156.818 178.143 156.636 178.143 155.5V150.409H180.007V149.273ZM183.553 152.75C183.553 151.227 184.524 150.364 185.848 150.364C187.109 150.364 187.871 151.159 187.871 152.545V158H189.212V152.455C189.212 150.21 188.018 149.159 186.234 149.159C184.859 149.159 184.075 149.733 183.666 150.636H183.553V146.364H182.212V158H183.553V152.75ZM7.40909 177.227C6.98864 175.989 6.04545 175.159 4.31818 175.159C2.47727 175.159 1.11364 176.205 1.11364 177.682C1.11364 178.886 1.82955 179.693 3.43182 180.068L4.88636 180.409C5.76705 180.614 6.18182 181.034 6.18182 181.636C6.18182 182.386 5.38636 183 4.13636 183C3.03977 183 2.35227 182.528 2.11364 181.591L0.840909 181.909C1.15341 183.392 2.375 184.182 4.15909 184.182C6.1875 184.182 7.56818 183.074 7.56818 181.568C7.56818 180.352 6.80682 179.585 5.25 179.205L3.95455 178.886C2.92045 178.631 2.45455 178.284 2.45455 177.614C2.45455 176.864 3.25 176.318 4.31818 176.318C5.48864 176.318 5.97159 176.966 6.20455 177.568L7.40909 177.227ZM13.1321 184.182C15.4957 184.182 17.0866 182.386 17.0866 179.682C17.0866 176.955 15.4957 175.159 13.1321 175.159C10.7685 175.159 9.17756 176.955 9.17756 179.682C9.17756 182.386 10.7685 184.182 13.1321 184.182ZM13.1321 182.977C11.3366 182.977 10.5185 181.432 10.5185 179.682C10.5185 177.932 11.3366 176.364 13.1321 176.364C14.9276 176.364 15.7457 177.932 15.7457 179.682C15.7457 181.432 14.9276 182.977 13.1321 182.977ZM19.1335 184H20.4744V178.545C20.4744 177.267 21.4062 176.364 22.4517 176.364C23.4688 176.364 24.179 177.028 24.179 178.023V184H25.5426V178.318C25.5426 177.193 26.2472 176.364 27.4744 176.364C28.429 176.364 29.2472 176.869 29.2472 178.159V184H30.5881V178.159C30.5881 176.108 29.4858 175.159 27.929 175.159C26.679 175.159 25.7642 175.733 25.3153 176.636H25.2244C24.7926 175.705 24.0312 175.159 22.8835 175.159C21.7472 175.159 20.9062 175.705 20.5426 176.636H20.429V175.273H19.1335V184ZM36.6989 184.182C38.4716 184.182 39.767 183.295 40.1761 181.977L38.8807 181.614C38.5398 182.523 37.75 182.977 36.6989 182.977C35.125 182.977 34.0398 181.96 33.9773 180.091H40.3125V179.523C40.3125 176.273 38.3807 175.159 36.5625 175.159C34.1989 175.159 32.6307 177.023 32.6307 179.705C32.6307 182.386 34.1761 184.182 36.6989 184.182ZM33.9773 178.932C34.0682 177.574 35.0284 176.364 36.5625 176.364C38.017 176.364 38.9489 177.455 38.9489 178.932H33.9773ZM46.8523 187.273H48.1932V182.659H48.3068C48.6023 183.136 49.1705 184.182 50.8523 184.182C53.0341 184.182 54.5568 182.432 54.5568 179.659C54.5568 176.909 53.0341 175.159 50.8295 175.159C49.125 175.159 48.6023 176.205 48.3068 176.659H48.1477V175.273H46.8523V187.273ZM48.1705 179.636C48.1705 177.682 49.0341 176.364 50.6705 176.364C52.375 176.364 53.2159 177.795 53.2159 179.636C53.2159 181.5 52.3523 182.977 50.6705 182.977C49.0568 182.977 48.1705 181.614 48.1705 179.636ZM56.6023 184H57.9432V178.477C57.9432 177.295 58.875 176.432 60.1477 176.432C60.5057 176.432 60.875 176.5 60.9659 176.523V175.159C60.8125 175.148 60.4602 175.136 60.2614 175.136C59.2159 175.136 58.3068 175.727 57.9886 176.591H57.8977V175.273H56.6023V184ZM65.8352 184.182C68.1989 184.182 69.7898 182.386 69.7898 179.682C69.7898 176.955 68.1989 175.159 65.8352 175.159C63.4716 175.159 61.8807 176.955 61.8807 179.682C61.8807 182.386 63.4716 184.182 65.8352 184.182ZM65.8352 182.977C64.0398 182.977 63.2216 181.432 63.2216 179.682C63.2216 177.932 64.0398 176.364 65.8352 176.364C67.6307 176.364 68.4489 177.932 68.4489 179.682C68.4489 181.432 67.6307 182.977 65.8352 182.977ZM75.3821 184.182C77.3139 184.182 78.5866 183 78.8139 181.455H77.473C77.223 182.409 76.4276 182.977 75.3821 182.977C73.7912 182.977 72.7685 181.659 72.7685 179.636C72.7685 177.659 73.8139 176.364 75.3821 176.364C76.5639 176.364 77.2685 177.091 77.473 177.886H78.8139C78.5866 176.25 77.2003 175.159 75.3594 175.159C72.9957 175.159 71.4276 177.023 71.4276 179.682C71.4276 182.295 72.9276 184.182 75.3821 184.182ZM84.3196 184.182C86.2514 184.182 87.5241 183 87.7514 181.455H86.4105C86.1605 182.409 85.3651 182.977 84.3196 182.977C82.7287 182.977 81.706 181.659 81.706 179.636C81.706 177.659 82.7514 176.364 84.3196 176.364C85.5014 176.364 86.206 177.091 86.4105 177.886H87.7514C87.5241 176.25 86.1378 175.159 84.2969 175.159C81.9332 175.159 80.3651 177.023 80.3651 179.682C80.3651 182.295 81.8651 184.182 84.3196 184.182ZM93.3707 184.182C95.1435 184.182 96.4389 183.295 96.848 181.977L95.5526 181.614C95.2116 182.523 94.4219 182.977 93.3707 182.977C91.7969 182.977 90.7116 181.96 90.6491 180.091H96.9844V179.523C96.9844 176.273 95.0526 175.159 93.2344 175.159C90.8707 175.159 89.3026 177.023 89.3026 179.705C89.3026 182.386 90.848 184.182 93.3707 184.182ZM90.6491 178.932C90.7401 177.574 91.7003 176.364 93.2344 176.364C94.6889 176.364 95.6207 177.455 95.6207 178.932H90.6491ZM105.206 177.227C104.786 175.989 103.842 175.159 102.115 175.159C100.274 175.159 98.9105 176.205 98.9105 177.682C98.9105 178.886 99.6264 179.693 101.229 180.068L102.683 180.409C103.564 180.614 103.979 181.034 103.979 181.636C103.979 182.386 103.183 183 101.933 183C100.837 183 100.149 182.528 99.9105 181.591L98.6378 181.909C98.9503 183.392 100.172 184.182 101.956 184.182C103.984 184.182 105.365 183.074 105.365 181.568C105.365 180.352 104.604 179.585 103.047 179.205L101.751 178.886C100.717 178.631 100.251 178.284 100.251 177.614C100.251 176.864 101.047 176.318 102.115 176.318C103.286 176.318 103.768 176.966 104.001 177.568L105.206 177.227ZM113.565 177.227C113.145 175.989 112.202 175.159 110.474 175.159C108.634 175.159 107.27 176.205 107.27 177.682C107.27 178.886 107.986 179.693 109.588 180.068L111.043 180.409C111.923 180.614 112.338 181.034 112.338 181.636C112.338 182.386 111.543 183 110.293 183C109.196 183 108.509 182.528 108.27 181.591L106.997 181.909C107.31 183.392 108.531 184.182 110.315 184.182C112.344 184.182 113.724 183.074 113.724 181.568C113.724 180.352 112.963 179.585 111.406 179.205L110.111 178.886C109.077 178.631 108.611 178.284 108.611 177.614C108.611 176.864 109.406 176.318 110.474 176.318C111.645 176.318 112.128 176.966 112.361 177.568L113.565 177.227ZM122.811 184.205C124.334 184.205 125.129 183.386 125.402 182.818H125.47V184H126.811V178.25C126.811 175.477 124.697 175.159 123.584 175.159C122.266 175.159 120.766 175.614 120.084 177.205L121.357 177.659C121.652 177.023 122.351 176.341 123.629 176.341C124.862 176.341 125.47 176.994 125.47 178.114V178.159C125.47 178.807 124.811 178.75 123.22 178.955C121.601 179.165 119.834 179.523 119.834 181.523C119.834 183.227 121.152 184.205 122.811 184.205ZM123.016 183C121.947 183 121.175 182.523 121.175 181.591C121.175 180.568 122.107 180.25 123.152 180.114C123.72 180.045 125.243 179.886 125.47 179.614V180.841C125.47 181.932 124.607 183 123.016 183ZM130.599 178.75C130.599 177.227 131.543 176.364 132.827 176.364C134.071 176.364 134.827 177.176 134.827 178.545V184H136.168V178.455C136.168 176.227 134.98 175.159 133.213 175.159C131.895 175.159 131.077 175.75 130.668 176.636H130.554V175.273H129.259V184H130.599V178.75ZM141.913 184.182C143.595 184.182 144.163 183.136 144.459 182.659H144.618V184H145.913V172.364H144.572V176.659H144.459C144.163 176.205 143.641 175.159 141.936 175.159C139.732 175.159 138.209 176.909 138.209 179.659C138.209 182.432 139.732 184.182 141.913 184.182ZM142.095 182.977C140.413 182.977 139.55 181.5 139.55 179.636C139.55 177.795 140.391 176.364 142.095 176.364C143.732 176.364 144.595 177.682 144.595 179.636C144.595 181.614 143.709 182.977 142.095 182.977ZM153.055 184H154.396V178.545C154.396 177.267 155.328 176.364 156.374 176.364C157.391 176.364 158.101 177.028 158.101 178.023V184H159.464V178.318C159.464 177.193 160.169 176.364 161.396 176.364C162.351 176.364 163.169 176.869 163.169 178.159V184H164.51V178.159C164.51 176.108 163.408 175.159 161.851 175.159C160.601 175.159 159.686 175.733 159.237 176.636H159.146C158.714 175.705 157.953 175.159 156.805 175.159C155.669 175.159 154.828 175.705 154.464 176.636H154.351V175.273H153.055V184ZM170.621 184.182C172.393 184.182 173.689 183.295 174.098 181.977L172.803 181.614C172.462 182.523 171.672 182.977 170.621 182.977C169.047 182.977 167.962 181.96 167.899 180.091H174.234V179.523C174.234 176.273 172.303 175.159 170.484 175.159C168.121 175.159 166.553 177.023 166.553 179.705C166.553 182.386 168.098 184.182 170.621 184.182ZM167.899 178.932C167.99 177.574 168.95 176.364 170.484 176.364C171.939 176.364 172.871 177.455 172.871 178.932H167.899ZM180.07 175.273H178.206V173.182H176.865V175.273H175.547V176.409H176.865V181.864C176.865 183.386 178.092 184.114 179.229 184.114C179.729 184.114 180.047 184.023 180.229 183.955L179.956 182.75C179.842 182.773 179.661 182.818 179.365 182.818C178.774 182.818 178.206 182.636 178.206 181.5V176.409H180.07V175.273ZM183.615 178.75C183.615 177.227 184.587 176.364 185.911 176.364C187.172 176.364 187.933 177.159 187.933 178.545V184H189.274V178.455C189.274 176.21 188.081 175.159 186.297 175.159C184.922 175.159 184.138 175.733 183.729 176.636H183.615V172.364H182.274V184H183.615V178.75ZM195.273 184.182C197.636 184.182 199.227 182.386 199.227 179.682C199.227 176.955 197.636 175.159 195.273 175.159C192.909 175.159 191.318 176.955 191.318 179.682C191.318 182.386 192.909 184.182 195.273 184.182ZM195.273 182.977C193.477 182.977 192.659 181.432 192.659 179.682C192.659 177.932 193.477 176.364 195.273 176.364C197.068 176.364 197.886 177.932 197.886 179.682C197.886 181.432 197.068 182.977 195.273 182.977ZM204.57 184.182C206.251 184.182 206.82 183.136 207.115 182.659H207.274V184H208.57V172.364H207.229V176.659H207.115C206.82 176.205 206.297 175.159 204.592 175.159C202.388 175.159 200.865 176.909 200.865 179.659C200.865 182.432 202.388 184.182 204.57 184.182ZM204.751 182.977C203.07 182.977 202.206 181.5 202.206 179.636C202.206 177.795 203.047 176.364 204.751 176.364C206.388 176.364 207.251 177.682 207.251 179.636C207.251 181.614 206.365 182.977 204.751 182.977ZM212.189 184.091C212.751 184.091 213.212 183.631 213.212 183.068C213.212 182.506 212.751 182.045 212.189 182.045C211.626 182.045 211.166 182.506 211.166 183.068C211.166 183.631 211.626 184.091 212.189 184.091Z" fill="#696969"/>
</svg>
